<svg width="79" height="82" viewBox="0 0 79 82" fill="none" xmlns="http://www.w3.org/2000/svg">
<path d="M17.9894 44.2711H9.9418C7.3059 44.2684 4.77874 43.2429 2.91488 41.4196C1.05102 39.5962 0.00271044 37.124 0 34.5455L0 10.1162C0.00271365 7.53858 1.05135 5.0674 2.9155 3.24566C4.77966 1.42392 7.30684 0.400633 9.9418 0.400635H35.6512C38.2862 0.400633 40.8134 1.42392 42.6775 3.24566C44.5417 5.0674 45.5903 7.53858 45.593 10.1162V19.8418C45.593 21.271 45.0127 22.6416 43.9796 23.6522C42.9466 24.6628 41.5455 25.2305 40.0846 25.2305C38.6237 25.2305 37.2226 24.6628 36.1895 23.6522C35.1565 22.6416 34.5761 21.271 34.5761 19.8418V11.1779H11.0271V33.4837H17.9894C18.7335 33.4524 19.4763 33.5686 20.1732 33.8256C20.8701 34.0825 21.5066 34.4747 22.0444 34.9786C22.5822 35.4826 23.0102 36.0878 23.3026 36.7578C23.595 37.4279 23.7457 38.1489 23.7457 38.8774C23.7457 39.6059 23.595 40.3269 23.3026 40.997C23.0102 41.667 22.5822 42.2722 22.0444 42.7762C21.5066 43.2801 20.8701 43.6723 20.1732 43.9293C19.4763 44.1862 18.7335 44.3024 17.9894 44.2711Z" fill="url(#paint0_linear_79_417)"/>
<path d="M68.2408 81.6912H42.5211C39.8861 81.6859 37.3605 80.6596 35.4972 78.8368C33.6339 77.0141 32.5847 74.5434 32.5793 71.9656V62.25C32.5473 61.5222 32.6661 60.7955 32.9287 60.1138C33.1914 59.432 33.5923 58.8093 34.1075 58.2832C34.6226 57.7571 35.2413 57.3384 35.9262 57.0524C36.6111 56.7663 37.3482 56.6189 38.0929 56.6189C38.8376 56.6189 39.5746 56.7663 40.2596 57.0524C40.9445 57.3384 41.5632 57.7571 42.0783 58.2832C42.5935 58.8093 42.9944 59.432 43.257 60.1138C43.5197 60.7955 43.6385 61.5222 43.6064 62.25V70.9039H67.1555V48.5981H60.1829C58.722 48.5981 57.3209 48.0304 56.2879 47.0198C55.2548 46.0092 54.6745 44.6386 54.6745 43.2095C54.6745 41.7803 55.2548 40.4097 56.2879 39.3991C57.3209 38.3885 58.722 37.8208 60.1829 37.8208H68.2408C70.874 37.8235 73.3985 38.8479 75.2605 40.6694C77.1224 42.4908 78.1696 44.9605 78.1723 47.5364V71.9656C78.1696 74.5425 77.1227 77.0132 75.2611 78.8362C73.3994 80.6593 70.8749 81.6859 68.2408 81.6912Z" fill="url(#paint1_linear_79_417)"/>
<path d="M16.3206 67.3683C15.2272 67.3561 14.1621 67.0264 13.2606 66.4211C12.359 65.8158 11.6616 64.9621 11.2568 63.9684C10.852 62.9747 10.7581 61.8858 10.987 60.8398C11.2159 59.7938 11.7573 58.8379 12.5425 58.0934L58.0843 16.1861C58.6114 15.7014 59.2309 15.323 59.9075 15.0725C60.584 14.822 61.3044 14.7043 62.0275 14.7262C62.7505 14.7481 63.4621 14.909 64.1215 15.1999C64.781 15.4908 65.3754 15.9059 65.8709 16.4215C66.3664 16.9371 66.7532 17.5431 67.0092 18.205C67.2653 18.8668 67.3856 19.5715 67.3632 20.2788C67.3409 20.9862 67.1764 21.6823 66.879 22.3274C66.5817 22.9725 66.1574 23.554 65.6303 24.0387L20.0987 65.9059C19.0742 66.8439 17.7239 67.3666 16.3206 67.3683Z" fill="url(#paint2_linear_79_417)"/>
<defs>
<linearGradient id="paint0_linear_79_417" x1="0" y1="22.3384" x2="45.593" y2="22.3384" gradientUnits="userSpaceOnUse">
<stop stop-color="#37C848"/>
<stop offset="1" stop-color="#60AAFF"/>
</linearGradient>
<linearGradient id="paint1_linear_79_417" x1="32.5742" y1="59.756" x2="78.1723" y2="59.756" gradientUnits="userSpaceOnUse">
<stop stop-color="#37C848"/>
<stop offset="1" stop-color="#60AAFF"/>
</linearGradient>
<linearGradient id="paint2_linear_79_417" x1="10.8647" y1="41.046" x2="67.3659" y2="41.046" gradientUnits="userSpaceOnUse">
<stop stop-color="#37C848"/>
<stop offset="1" stop-color="#60AAFF"/>
</linearGradient>
</defs>
</svg>
