<svg width="431" height="83" viewBox="0 0 431 83" fill="none" xmlns="http://www.w3.org/2000/svg">
<path d="M14.6004 33.2133C14.6004 45.3027 21.2863 52.4442 32.0881 52.4442C39.5419 52.4442 44.8251 48.7983 45.8387 42.6385H61.0637C59.016 56.5508 47.8558 65.0645 32.0881 65.0645C12.6346 65.0645 0 52.5944 0 33.2133C0 13.8322 12.696 1.3722 32.1189 1.3722C47.8865 1.3722 58.9955 9.88587 61.0944 23.7882H45.8694C44.8456 17.6383 39.5726 13.9824 32.1189 13.9824C21.317 14.0225 14.6004 21.1339 14.6004 33.2133ZM114.858 41.0659C114.858 55.5792 104.988 64.774 89.5273 64.774C74.0669 64.774 64.0432 55.4991 64.0432 40.9858C64.0432 26.4725 74.0669 17.3479 89.64 17.3479C105.213 17.3479 114.858 26.5226 114.858 41.0659ZM100.524 40.9858C100.524 33.9144 96.6433 29.5074 89.4966 29.5074C82.35 29.5074 78.3057 33.9144 78.3057 40.9858C78.3057 48.0572 82.2681 52.6145 89.4966 52.6145C96.7252 52.6145 100.606 48.0772 100.606 40.9658L100.524 40.9858ZM169.051 50.1806H176.045V63.8425H161.71V56.2403H158.444C155.106 61.639 149.434 64.754 141.581 64.754C126.899 64.754 119.127 55.1085 119.127 41.0459C119.127 26.9833 126.899 17.3278 140.342 17.3278C146.946 17.3278 151.758 19.8419 154.4 24.0887H154.717V0H169.051V50.1806ZM154.717 39.3932C154.717 33.2334 150.755 29.5074 144.304 29.5074C136.922 29.5074 133.431 33.9946 133.431 41.0659C133.431 48.1373 136.922 52.6145 144.304 52.6145C150.755 52.6145 154.717 48.8885 154.717 42.7386V39.3932ZM228.211 40.455V44.9422H193.553C194.638 50.7915 198.518 53.8264 204.897 53.8264C209.945 53.8264 212.668 52.314 213.907 48.8885H228.242C226.194 58.8445 217.603 64.774 205.01 64.774C189.549 64.774 179.843 55.4991 179.843 40.9157C179.843 26.3323 189.314 17.3479 204.416 17.3479C219.375 17.3278 228.282 26.0418 228.282 40.4349L228.211 40.455ZM214.532 35.8175C213.6 30.8095 210.262 28.2954 204.436 28.2954C198.611 28.2954 195.109 30.8595 193.778 35.7975L214.532 35.8175ZM288.875 41.0659C288.875 55.1986 281.104 64.774 267.671 64.774C261.067 64.774 256.244 62.27 253.603 58.0131H253.296V82.1319H238.961V31.9213H231.968V18.2393H246.303V25.8415H249.569C252.907 20.4428 258.579 17.3278 266.422 17.3278C281.104 17.3278 288.875 26.9833 288.875 41.0659ZM274.541 41.0659C274.541 33.9946 271.039 29.5074 263.667 29.5074C257.217 29.5074 253.255 33.2334 253.255 39.3932V42.7386C253.255 48.8885 257.217 52.6145 263.667 52.6145C271.08 52.5944 274.582 48.0772 274.582 41.0659H274.541ZM349.437 41.0659C349.437 55.1986 341.666 64.774 328.223 64.774C321.619 64.774 316.806 62.27 314.165 58.0131H313.847V82.1319H299.513V31.9213H292.52V18.2393H306.854V25.8415H310.121C313.458 20.4428 319.131 17.3278 326.984 17.3278C341.707 17.3278 349.478 26.9833 349.478 41.0659H349.437ZM335.103 41.0659C335.103 33.9946 331.612 29.5074 324.229 29.5074C317.779 29.5074 313.817 33.2334 313.817 39.3932V42.7386C313.817 48.8885 317.779 52.6145 324.229 52.6145C331.683 52.5944 335.175 48.0772 335.175 41.0659H335.103ZM356.574 63.8425H370.908V0H356.574V63.8425ZM415.692 18.2393L403.774 47.356H403.467L391.385 18.2393H376.201L396.013 63.3116L392.819 70.8337H382.877V82.1319H393.29C400.825 82.1319 404.091 78.5661 406.887 72.0256L410.378 63.8926L430.425 18.2894L415.692 18.2393Z" fill="url(#paint0_linear_80_442)"/>
<defs>
<linearGradient id="paint0_linear_80_442" x1="0" y1="41.0659" x2="430.425" y2="41.0659" gradientUnits="userSpaceOnUse">
<stop stop-color="#60AAFF"/>
<stop offset="1" stop-color="#37C848"/>
</linearGradient>
</defs>
</svg>
