<svg width="431" height="83" viewBox="0 0 431 83" fill="none" xmlns="http://www.w3.org/2000/svg">
<path d="M15.1751 33.2133C15.1751 45.3027 21.861 52.4442 32.6629 52.4442C40.1166 52.4442 45.3998 48.7983 46.4134 42.6385H61.6384C59.5907 56.5508 48.4305 65.0645 32.6629 65.0645C13.2093 65.0645 0.574707 52.5944 0.574707 33.2133C0.574707 13.8322 13.2707 1.3722 32.6936 1.3722C48.4612 1.3722 59.5702 9.88587 61.6691 23.7882H46.4442C45.4203 17.6383 40.1474 13.9824 32.6936 13.9824C21.8917 14.0225 15.1751 21.1339 15.1751 33.2133ZM115.433 41.0659C115.433 55.5792 105.563 64.774 90.1021 64.774C74.6416 64.774 64.6179 55.4991 64.6179 40.9858C64.6179 26.4725 74.6416 17.3479 90.2147 17.3479C105.788 17.3479 115.433 26.5226 115.433 41.0659ZM101.098 40.9858C101.098 33.9144 97.218 29.5074 90.0713 29.5074C82.9247 29.5074 78.8804 33.9144 78.8804 40.9858C78.8804 48.0572 82.8428 52.6145 90.0713 52.6145C97.2999 52.6145 101.18 48.0772 101.18 40.9658L101.098 40.9858ZM169.626 50.1806H176.619V63.8425H162.285V56.2403H159.019C155.681 61.639 150.009 64.754 142.156 64.754C127.473 64.754 119.702 55.1085 119.702 41.0459C119.702 26.9833 127.473 17.3278 140.917 17.3278C147.521 17.3278 152.333 19.8419 154.975 24.0887H155.292V0H169.626V50.1806ZM155.292 39.3932C155.292 33.2334 151.33 29.5074 144.879 29.5074C137.497 29.5074 134.006 33.9946 134.006 41.0659C134.006 48.1373 137.497 52.6145 144.879 52.6145C151.33 52.6145 155.292 48.8885 155.292 42.7386V39.3932ZM228.786 40.455V44.9422H194.127C195.213 50.7915 199.093 53.8264 205.472 53.8264C210.52 53.8264 213.243 52.314 214.482 48.8885H228.816C226.768 58.8445 218.178 64.774 205.585 64.774C190.124 64.774 180.418 55.4991 180.418 40.9157C180.418 26.3323 189.889 17.3479 204.991 17.3479C219.95 17.3278 228.857 26.0418 228.857 40.4349L228.786 40.455ZM215.107 35.8175C214.175 30.8095 210.837 28.2954 205.011 28.2954C199.185 28.2954 195.684 30.8595 194.353 35.7975L215.107 35.8175ZM289.45 41.0659C289.45 55.1986 281.679 64.774 268.246 64.774C261.642 64.774 256.819 62.27 254.178 58.0131H253.87V82.1319H239.536V31.9213H232.543V18.2393H246.877V25.8415H250.143C253.481 20.4428 259.154 17.3278 266.996 17.3278C281.679 17.3278 289.45 26.9833 289.45 41.0659ZM275.116 41.0659C275.116 33.9946 271.614 29.5074 264.242 29.5074C257.792 29.5074 253.829 33.2334 253.829 39.3932V42.7386C253.829 48.8885 257.792 52.6145 264.242 52.6145C271.655 52.5944 275.157 48.0772 275.157 41.0659H275.116ZM350.012 41.0659C350.012 55.1986 342.241 64.774 328.797 64.774C322.193 64.774 317.381 62.27 314.74 58.0131H314.422V82.1319H300.088V31.9213H293.095V18.2393H307.429V25.8415H310.695C314.033 20.4428 319.705 17.3278 327.558 17.3278C342.282 17.3278 350.053 26.9833 350.053 41.0659H350.012ZM335.678 41.0659C335.678 33.9946 332.186 29.5074 324.804 29.5074C318.354 29.5074 314.391 33.2334 314.391 39.3932V42.7386C314.391 48.8885 318.354 52.6145 324.804 52.6145C332.258 52.5944 335.749 48.0772 335.749 41.0659H335.678ZM357.148 63.8425H371.483V0H357.148V63.8425ZM416.267 18.2393L404.349 47.356H404.042L391.96 18.2393H376.776L396.588 63.3116L393.393 70.8337H383.452V82.1319H393.864C401.4 82.1319 404.666 78.5661 407.461 72.0256L410.953 63.8926L431 18.2894L416.267 18.2393Z" fill="url(#paint0_linear_79_298)"/>
<defs>
<linearGradient id="paint0_linear_79_298" x1="0.574707" y1="41.0659" x2="431" y2="41.0659" gradientUnits="userSpaceOnUse">
<stop stop-color="#37C848"/>
<stop offset="1" stop-color="#60AAFF"/>
</linearGradient>
</defs>
</svg>
