<svg width="552" height="83" viewBox="0 0 552 83" fill="none" xmlns="http://www.w3.org/2000/svg">
<g clip-path="url(#clip0_79_289)">
<path d="M136.175 33.2133C136.175 45.3027 142.861 52.4442 153.662 52.4442C161.116 52.4442 166.399 48.7983 167.413 42.6385H182.638C180.59 56.5508 169.43 65.0645 153.662 65.0645C134.209 65.0645 121.574 52.5944 121.574 33.2133C121.574 13.8322 134.27 1.3722 153.693 1.3722C169.461 1.3722 180.57 9.88587 182.669 23.7882H167.444C166.42 17.6383 161.147 13.9824 153.693 13.9824C142.891 14.0225 136.175 21.1339 136.175 33.2133ZM236.432 41.0659C236.432 55.5792 226.562 64.774 211.102 64.774C195.641 64.774 185.617 55.4991 185.617 40.9858C185.617 26.4725 195.641 17.3479 211.214 17.3479C226.787 17.3479 236.432 26.5226 236.432 41.0659ZM222.098 40.9858C222.098 33.9144 218.217 29.5074 211.071 29.5074C203.924 29.5074 199.88 33.9144 199.88 40.9858C199.88 48.0572 203.842 52.6145 211.071 52.6145C218.299 52.6145 222.18 48.0772 222.18 40.9658L222.098 40.9858ZM290.626 50.1806H297.619V63.8425H283.285V56.2403H280.018C276.681 61.639 271.008 64.754 263.155 64.754C248.473 64.754 240.702 55.1085 240.702 41.0459C240.702 26.9833 248.473 17.3278 261.916 17.3278C268.52 17.3278 273.333 19.8419 275.974 24.0887H276.292V0H290.626V50.1806ZM276.292 39.3932C276.292 33.2334 272.329 29.5074 265.879 29.5074C258.497 29.5074 255.005 33.9946 255.005 41.0659C255.005 48.1373 258.497 52.6145 265.879 52.6145C272.329 52.6145 276.292 48.8885 276.292 42.7386V39.3932ZM349.785 40.455V44.9422H315.127C316.212 50.7915 320.093 53.8264 326.471 53.8264C331.519 53.8264 334.243 52.314 335.482 48.8885H349.816C347.768 58.8445 339.178 64.774 326.584 64.774C311.124 64.774 301.417 55.4991 301.417 40.9157C301.417 26.3323 310.888 17.3479 325.99 17.3479C340.949 17.3278 349.857 26.0418 349.857 40.4349L349.785 40.455ZM336.106 35.8175C335.174 30.8095 331.837 28.2954 326.011 28.2954C320.185 28.2954 316.683 30.8595 315.352 35.7975L336.106 35.8175ZM410.449 41.0659C410.449 55.1986 402.678 64.774 389.245 64.774C382.641 64.774 377.819 62.27 375.177 58.0131H374.87V82.1319H360.536V31.9213H353.543V18.2393H367.877V25.8415H371.143C374.481 20.4428 380.153 17.3278 387.996 17.3278C402.678 17.3278 410.449 26.9833 410.449 41.0659ZM396.115 41.0659C396.115 33.9946 392.614 29.5074 385.242 29.5074C378.791 29.5074 374.829 33.2334 374.829 39.3932V42.7386C374.829 48.8885 378.791 52.6145 385.242 52.6145C392.655 52.5944 396.156 48.0772 396.156 41.0659H396.115ZM471.011 41.0659C471.011 55.1986 463.24 64.774 449.797 64.774C443.193 64.774 438.381 62.27 435.739 58.0131H435.422V82.1319H421.087V31.9213H414.094V18.2393H428.429V25.8415H431.695C435.033 20.4428 440.705 17.3278 448.558 17.3278C463.281 17.3278 471.052 26.9833 471.052 41.0659H471.011ZM456.677 41.0659C456.677 33.9946 453.186 29.5074 445.804 29.5074C439.353 29.5074 435.391 33.2334 435.391 39.3932V42.7386C435.391 48.8885 439.353 52.6145 445.804 52.6145C453.257 52.5944 456.749 48.0772 456.749 41.0659H456.677ZM478.148 63.8425H492.482V0H478.148V63.8425ZM537.266 18.2393L525.348 47.356H525.041L512.959 18.2393H497.775L517.587 63.3116L514.393 70.8337H504.451V82.1319H514.864C522.4 82.1319 525.666 78.5661 528.461 72.0256L531.952 63.8926L552 18.2894L537.266 18.2393Z" fill="white"/>
<path d="M17.9894 44.2709H9.9418C7.3059 44.2683 4.77874 43.2428 2.91488 41.4195C1.05102 39.5961 0.00271044 37.1239 0 34.5453L0 10.1161C0.00271365 7.53845 1.05135 5.06728 2.9155 3.24554C4.77966 1.4238 7.30684 0.400511 9.9418 0.400513H35.6512C38.2862 0.400511 40.8134 1.4238 42.6775 3.24554C44.5417 5.06728 45.5903 7.53845 45.593 10.1161V19.8417C45.593 21.2709 45.0127 22.6415 43.9796 23.6521C42.9466 24.6626 41.5455 25.2304 40.0846 25.2304C38.6237 25.2304 37.2226 24.6626 36.1895 23.6521C35.1565 22.6415 34.5762 21.2709 34.5762 19.8417V11.1778H11.0271V33.4836H17.9894C18.7335 33.4523 19.4763 33.5685 20.1732 33.8254C20.8701 34.0823 21.5066 34.4746 22.0444 34.9785C22.5822 35.4825 23.0102 36.0877 23.3026 36.7577C23.595 37.4278 23.7457 38.1488 23.7457 38.8773C23.7457 39.6058 23.595 40.3268 23.3026 40.9969C23.0102 41.6669 22.5822 42.2721 22.0444 42.7761C21.5066 43.28 20.8701 43.6722 20.1732 43.9291C19.4763 44.186 18.7335 44.3023 17.9894 44.2709Z" fill="#37C848"/>
<path d="M68.2408 81.6912H42.5211C39.8861 81.6859 37.3605 80.6596 35.4972 78.8368C33.6339 77.0141 32.5847 74.5434 32.5793 71.9656V62.25C32.5473 61.5222 32.6661 60.7955 32.9287 60.1137C33.1914 59.432 33.5923 58.8093 34.1075 58.2832C34.6226 57.7571 35.2413 57.3384 35.9262 57.0524C36.6111 56.7663 37.3482 56.6189 38.0929 56.6189C38.8376 56.6189 39.5746 56.7663 40.2596 57.0524C40.9445 57.3384 41.5632 57.7571 42.0783 58.2832C42.5935 58.8093 42.9944 59.432 43.257 60.1137C43.5197 60.7955 43.6385 61.5222 43.6064 62.25V70.9039H67.1555V48.5981H60.1829C58.722 48.5981 57.3209 48.0304 56.2879 47.0198C55.2548 46.0092 54.6745 44.6386 54.6745 43.2095C54.6745 41.7803 55.2548 40.4097 56.2879 39.3991C57.3209 38.3885 58.722 37.8208 60.1829 37.8208H68.2408C70.874 37.8235 73.3985 38.8479 75.2605 40.6694C77.1224 42.4908 78.1696 44.9605 78.1723 47.5364V71.9656C78.1696 74.5425 77.1227 77.0132 75.2611 78.8362C73.3994 80.6593 70.8749 81.6859 68.2408 81.6912Z" fill="#37C848"/>
<path d="M16.3201 67.3681C15.2267 67.356 14.1617 67.0263 13.2601 66.421C12.3585 65.8157 11.6611 64.962 11.2563 63.9683C10.8515 62.9746 10.7576 61.8856 10.9865 60.8396C11.2155 59.7936 11.7569 58.8377 12.542 58.0933L58.0839 16.186C58.6109 15.7013 59.2304 15.3229 59.907 15.0724C60.5835 14.8219 61.3039 14.7042 62.027 14.7261C62.75 14.7479 63.4616 14.9089 64.121 15.1998C64.7805 15.4906 65.3749 15.9057 65.8704 16.4214C66.3659 16.937 66.7527 17.543 67.0087 18.2048C67.2648 18.8667 67.3851 19.5714 67.3627 20.2787C67.3404 20.986 67.1759 21.6821 66.8785 22.3273C66.5812 22.9724 66.1569 23.5539 65.6298 24.0386L20.0982 65.9058C19.0737 66.8438 17.7234 67.3664 16.3201 67.3681Z" fill="#37C848"/>
</g>
<defs>
<clipPath id="clip0_79_289">
<rect width="552" height="82.0818" fill="white"/>
</clipPath>
</defs>
</svg>
